<svg width="8" height="7" viewBox="0 0 8 7" fill="none" xmlns="http://www.w3.org/2000/svg">
<path d="M3.99386 2.87042L6.72281 0.141464C6.91143 -0.0471547 7.21643 -0.0471547 7.40304 0.141464L7.85653 0.594952C8.04515 0.783571 8.04515 1.08857 7.85653 1.27518L5.92419 3.21154L7.85854 5.14588C8.04715 5.3345 8.04715 5.6395 7.85854 5.82612L7.40505 6.28161C7.21643 6.47023 6.91143 6.47023 6.72482 6.28161L3.99586 3.55266C3.80524 3.36404 3.80524 3.05904 3.99386 2.87042ZM0.141214 3.55266L2.87017 6.28161C3.05879 6.47023 3.36379 6.47023 3.5504 6.28161L4.00389 5.82812C4.19251 5.6395 4.19251 5.3345 4.00389 5.14789L2.07155 3.21154L4.0059 1.27719C4.19451 1.08857 4.19451 0.783571 4.0059 0.596959L3.55241 0.141464C3.36379 -0.0471547 3.05879 -0.0471547 2.87218 0.141464L0.143221 2.87042C-0.0474046 3.05904 -0.0474045 3.36404 0.141214 3.55266Z" fill="#21201F"/>
</svg>
