<svg width="8" height="7" viewBox="0 0 8 7" fill="none" xmlns="http://www.w3.org/2000/svg">
<path d="M4.00502 3.55344L1.27546 6.28299C1.0868 6.47165 0.781736 6.47165 0.595083 6.28299L0.141495 5.8294C-0.0471651 5.64074 -0.0471651 5.33568 0.141495 5.14902L2.07627 3.21425L0.141495 1.27948C-0.0471651 1.09082 -0.0471651 0.78575 0.141495 0.599097L0.593076 0.141495C0.781736 -0.0471651 1.0868 -0.0471651 1.27346 0.141495L4.00301 2.87105C4.19368 3.05971 4.19368 3.36478 4.00502 3.55344ZM7.85851 2.87105L5.12895 0.141495C4.94029 -0.0471651 4.63522 -0.0471651 4.44857 0.141495L3.99498 0.595083C3.80632 0.783743 3.80632 1.08881 3.99498 1.27546L5.92975 3.21024L3.99498 5.14501C3.80632 5.33367 3.80632 5.63874 3.99498 5.82539L4.44857 6.27898C4.63723 6.46764 4.9423 6.46764 5.12895 6.27898L7.85851 3.54942C8.04717 3.36478 8.04717 3.05971 7.85851 2.87105Z" fill="#21201F"/>
</svg>
