<svg width="64" height="64" viewBox="0 0 64 64" fill="none" xmlns="http://www.w3.org/2000/svg">
<path d="M1 28.3034C2.1432 25.8695 3.16219 23.3724 4.25395 20.8927C5.44956 18.1787 6.7461 8.08526 9.22077 6.8956C12.6699 5.23832 51.4318 7.09988 52.3809 7.8603C55.8269 10.6211 62.0401 28.3034 62.9997 30.7739C63.092 31.0114 39.3409 30.7739 37.8231 30.7739C26.4017 30.7739 14.9483 29.5388 3.56879 29.5388" stroke="#13332A" stroke-width="2" stroke-linecap="round" stroke-linejoin="round"/>
<path d="M7.69771 31.6265C8.43166 41.5801 5.5624 51.7089 6.97869 61.506" stroke="#13332A" stroke-width="2" stroke-linecap="round" stroke-linejoin="round"/>
<path d="M57.42 33.1205C57.42 41.8472 57.42 58.8052 57.42 63" stroke="#13332A" stroke-width="2" stroke-linecap="round" stroke-linejoin="round"/>
<path d="M53.08 13.6988C37.4289 14.8929 21.2044 14.2972 5.34 14.2972" stroke="#13332A" stroke-width="2" stroke-linecap="round" stroke-linejoin="round"/>
<path d="M59.9 21.1687C41.4054 21.4167 22.4988 23.9767 4.10001 21.777" stroke="#13332A" stroke-width="2" stroke-linecap="round" stroke-linejoin="round"/>
<path d="M40.06 12.7272C40.06 9.89573 40.5801 1.76725 41.1374 1.21036C41.5952 0.752863 47.9336 1.1537 48.4715 1.3608C48.8845 1.52076 48.821 5.38442 48.2813 12.9518" stroke="#13332A" stroke-width="2" stroke-linecap="round" stroke-linejoin="round"/>
<path d="M14.64 61.099C14.64 55.9667 15.2347 41.234 15.8715 40.2246C16.3944 39.3955 23.6384 40.1219 24.2531 40.4975C24.7252 40.7872 24.6526 47.7902 24.0356 61.506" stroke="#13332A" stroke-width="2" stroke-linecap="round" stroke-linejoin="round"/>
<path d="M44.3919 37.6024C45.4671 37.7704 46.5544 37.803 47.6535 37.7003C49.3024 37.5462 51.0733 37.5462 51.0733 37.9047C51.0733 38.2632 51.0733 39.2287 51.0733 39.8052C51.0733 40.382 51.22 46.6025 51.22 47.0287C51.22 47.4546 44.3081 47.3585 43.999 47.0287C43.69 46.6986 43.7984 42.6664 43.7984 42.1865C43.7984 41.7062 43.7984 41.0607 43.7984 40.6987" stroke="#13332A" stroke-width="2" stroke-linecap="round" stroke-linejoin="round"/>
<path d="M31.1622 38.537C32.2462 38.576 33.3076 38.5453 34.347 38.4449C35.9059 38.2945 37.58 38.2945 37.58 38.645C37.58 38.9956 37.58 39.9392 37.58 40.5032C37.58 41.067 37.58 46.3369 37.58 46.7532C37.58 47.1698 37.4064 47.1698 36.9649 47.1698C36.5233 47.1698 31.2813 47.4925 30.9892 47.1698C30.6973 46.8471 30.7674 41.6724 30.7674 41.2028C30.7674 40.7335 30.7674 40.1022 30.7674 39.7484" stroke="#13332A" stroke-width="2" stroke-linecap="round" stroke-linejoin="round"/>
</svg>
