<svg width="18" height="21" viewBox="0 0 18 21" fill="none" xmlns="http://www.w3.org/2000/svg">
<path d="M4.99999 20.75H4.94999C4.76013 20.7366 4.58238 20.6518 4.45251 20.5127C4.32264 20.3735 4.25028 20.1903 4.24999 20C4.24999 19.43 4.31999 18.9 4.46999 18.41L6.25999 5.89C6.31999 5.48 6.69999 5.2 7.10999 5.25C7.51999 5.31 7.80999 5.69 7.74999 6.1L6.32999 16.01C7.56999 15.26 8.91999 15.25 8.99999 15.25C12.72 15.25 15.75 12.22 15.75 8.5C15.75 4.78 12.72 1.75 8.99999 1.75C5.27999 1.75 2.24999 4.78 2.24999 8.5C2.24999 9.6 2.51999 10.69 3.02999 11.65C3.21999 12.02 3.07999 12.47 2.71999 12.66C2.34999 12.85 1.89999 12.71 1.70999 12.35C1.08717 11.1622 0.761217 9.84121 0.759995 8.5C0.759995 3.95 4.45999 0.25 9.00999 0.25C13.56 0.25 17.26 3.95 17.26 8.5C17.26 13.05 13.56 16.75 9.00999 16.75C8.91999 16.75 6.79999 16.79 6.03999 18.5C6.00999 18.58 5.96999 18.66 5.94999 18.74L5.75999 20.1C5.72954 20.2802 5.63677 20.444 5.49787 20.5628C5.35897 20.6816 5.18276 20.7479 4.99999 20.75ZM11 20.999C10.74 20.999 10.48 20.889 10.29 20.709C10.11 20.519 9.99999 20.259 9.99999 19.999C9.99999 19.869 10.03 19.739 10.08 19.619C10.13 19.489 10.2 19.389 10.29 19.289C10.57 19.009 11.01 18.919 11.38 19.079C11.51 19.129 11.61 19.199 11.71 19.289C11.8 19.389 11.87 19.489 11.92 19.619C11.97 19.739 12 19.869 12 19.999C12 20.259 11.89 20.519 11.71 20.709C11.61 20.799 11.51 20.869 11.38 20.919C11.26 20.969 11.13 20.999 11 20.999Z" fill="#E1A527"/>
</svg>
