<svg width="121" height="121" viewBox="0 0 121 121" fill="none" xmlns="http://www.w3.org/2000/svg">
<path d="M2.01658 83.6915H2.21817C2.62158 82.6831 3.22659 81.4731 3.83159 80.2631C3.025 79.4565 3.025 78.2465 3.83159 77.4397L7.865 73.4063C8.67158 72.5997 9.88158 72.5997 10.6884 73.4063C11.8984 72.8013 13.1084 72.1963 14.1168 71.7929V71.5913C14.1168 70.3813 14.9234 69.5747 16.1334 69.5747H24.2C25.41 69.5747 26.2166 70.3813 26.2166 71.5913V71.7929C27.225 72.1963 28.435 72.8013 29.645 73.4063C30.4516 72.5997 31.6616 72.5997 32.4684 73.4063L36.5018 77.4397C37.3084 78.2463 37.3084 79.4563 36.5018 80.2631C37.1068 81.4731 37.7118 82.6831 38.1152 83.6915H38.3168C39.5268 83.6915 40.3334 84.4981 40.3334 85.7081V93.7749C40.3334 94.9849 39.5268 95.7915 38.3168 95.7915H38.1152C37.7118 96.8 37.1068 98.0099 36.5018 99.2199C37.3084 100.027 37.3084 101.237 36.5018 102.043L32.4684 106.077C31.6618 106.883 30.4518 106.883 29.645 106.077C28.435 106.682 27.225 107.287 26.2166 107.69V107.892C26.2166 109.102 25.41 109.908 24.2 109.908H16.1334C14.9234 109.908 14.1168 109.102 14.1168 107.892V107.69C13.1084 107.287 11.8984 106.682 10.6884 106.077C9.88182 106.883 8.67182 106.883 7.865 106.077L3.83159 102.043C3.025 101.237 3.025 100.027 3.83159 99.2199C3.22659 98.0099 2.62158 96.8 2.21817 95.7915H2.01658C0.806582 95.7915 -3.17891e-06 94.9849 -3.17891e-06 93.7749V85.7084C-3.17891e-06 84.4984 0.806582 83.6915 2.01658 83.6915ZM4.03341 91.7584C4.83999 91.9599 5.445 92.3634 5.64682 93.1699C6.05024 94.3799 7.05841 96.3965 8.26841 98.2115C8.67182 98.8165 8.67182 99.8249 8.26841 100.43L9.47841 101.64C10.0834 101.237 11.0918 101.237 11.6968 101.64C13.3102 102.85 15.5284 103.858 16.7384 104.262C17.545 104.463 17.9484 105.068 18.15 105.875H22.1834C22.385 105.068 22.7884 104.463 23.595 104.262C24.805 103.858 26.8216 102.85 28.6366 101.64C29.2416 101.237 30.25 101.237 30.855 101.64L32.065 100.43C31.6616 99.8249 31.6616 98.8165 32.065 98.2115C33.275 96.5981 34.2834 94.3799 34.6866 93.1699C34.8882 92.3634 35.4932 91.9599 36.3 91.7584V87.725C35.4934 87.5234 34.8884 87.1199 34.6866 86.3134C34.2832 85.1034 33.275 83.0868 32.065 81.2718C31.6616 80.6668 31.6616 79.6584 32.065 79.0534L30.855 77.8434C30.25 78.2468 29.2416 78.2468 28.6366 77.8434C27.0232 76.6334 24.805 75.6249 23.595 75.2218C22.7884 75.0202 22.385 74.4152 22.1834 73.6084H18.15C17.9484 74.4149 17.545 75.0199 16.7384 75.2218C15.5284 75.6252 13.5118 76.6334 11.6968 77.8434C11.0918 78.2468 10.0834 78.2468 9.47841 77.8434L8.26841 79.0534C8.67182 79.6584 8.67182 80.6668 8.26841 81.2718C7.05841 82.8852 6.05 85.1034 5.64682 86.3134C5.44524 87.1199 4.84023 87.5234 4.03341 87.725V91.7584Z" fill="#13332A"/>
<path d="M20.1666 79.6584C25.8132 79.6584 30.25 84.095 30.25 89.7419C30.25 95.3887 25.8134 99.8253 20.1666 99.8253C14.5198 99.8253 10.0832 95.3887 10.0832 89.7419C10.0832 84.095 14.52 79.6584 20.1666 79.6584ZM20.1666 95.7916C23.595 95.7916 26.2166 93.17 26.2166 89.7416C26.2166 86.3132 23.595 83.6916 20.1666 83.6916C16.7382 83.6916 14.1166 86.3132 14.1166 89.7416C14.1166 93.17 16.7384 95.7916 20.1666 95.7916Z" fill="#13332A"/>
<path d="M43.9918 94.0945C43.9648 93.8624 43.9632 93.6173 43.9632 93.3716C44.1648 92.1616 44.3666 90.9516 44.3666 89.7416C44.3666 88.5316 44.165 87.3216 43.7616 86.1116C43.6344 85.7304 43.668 85.3496 43.8107 85.0188C43.1124 81.3134 41.551 77.806 39.1234 74.8182C35.358 70.0706 30.1307 66.9179 24.3047 65.8994C24.2848 65.8958 24.2648 65.8927 24.2447 65.8894C24.0556 65.8568 23.8656 65.8268 23.6753 65.7987C23.6205 65.7907 23.5657 65.7831 23.5109 65.7755C23.3532 65.7533 23.1954 65.733 23.037 65.7138C22.9668 65.7053 22.8964 65.6973 22.826 65.6895C22.6811 65.6734 22.5358 65.659 22.3902 65.6455C22.3122 65.6385 22.2342 65.6311 22.156 65.6245C22.0142 65.6127 21.8717 65.603 21.7294 65.5938C21.6505 65.5886 21.5716 65.5829 21.4924 65.5787C21.3416 65.5704 21.1904 65.5645 21.0391 65.5591C20.9694 65.5565 20.8999 65.5529 20.83 65.551C20.6095 65.5451 20.3885 65.5416 20.1671 65.5416C19.9217 65.5416 19.6757 65.5468 19.4292 65.5541C19.3562 65.5562 19.2832 65.5591 19.2102 65.5621C19.0218 65.5695 18.8332 65.5794 18.6446 65.5912C18.5773 65.5954 18.5099 65.5985 18.4428 65.6035C18.219 65.6193 17.9952 65.6389 17.7712 65.6609C17.6603 65.6718 17.55 65.6843 17.4396 65.6968C17.3184 65.7103 17.1974 65.7252 17.0761 65.7405C16.945 65.7573 16.8138 65.7739 16.6831 65.7925C16.6666 65.7949 16.6503 65.7977 16.6337 65.8003C16.3003 65.8493 15.968 65.9055 15.6376 65.9679C15.5778 65.9792 15.518 65.9906 15.458 66.0024C14.9853 66.0955 14.5165 66.203 14.0511 66.3233C13.9176 66.3581 13.7843 66.3933 13.6513 66.4304C13.5707 66.4526 13.4898 66.4751 13.4095 66.4982C11.244 67.1287 9.15346 68.0781 7.26024 69.3734C7.10355 69.4516 6.91591 69.5294 6.7103 69.584C5.54355 70.3556 4.44344 71.2281 3.42865 72.1968C2.62206 73.0034 1.41206 73.0034 0.605237 72.1968C-0.20135 71.3902 -0.20135 70.1802 0.605237 69.3734C1.59616 68.4207 2.65207 67.5473 3.76163 66.7572L0.201825 58.2818C9.29693e-07 58.08 0 57.6766 0 57.475V13.1084C0 11.8984 0.806585 11.0918 2.01659 11.0918H58.4834C59.6934 11.0918 60.5 11.8984 60.5 13.1084V21.175V45.375V47.3916H72.6V35.2916C72.6 34.0816 73.4066 33.275 74.6166 33.275H76.6332V27.225C76.6332 25.0066 74.8182 23.1916 72.5998 23.1916C71.3898 23.1916 70.5832 22.385 70.5832 21.175C70.5832 19.965 71.3898 19.1584 72.5998 19.1584C77.0364 19.1584 80.6664 22.7884 80.6664 27.225V33.275H82.6829C83.8929 33.275 84.6995 34.0816 84.6995 35.2916V47.3916H104.867C110.513 47.3916 114.95 51.8281 114.95 57.475V61.5084V78.1927C118.669 81.5074 121 86.3406 121 91.7584C121 101.842 112.933 109.908 102.85 109.908C94.1553 109.908 86.9652 103.908 85.1483 95.7918H47.7198C47.3464 97.4473 46.8284 99.0609 46.1816 100.632C45.98 101.438 45.1732 101.842 44.3666 101.842C44.165 101.842 43.7616 101.842 43.56 101.64C42.5516 101.237 42.1484 100.027 42.5516 99.0186C43.2128 97.4756 43.6919 95.8121 43.9918 94.0945ZM56.4666 23.1916H40.3332V43.3582H56.4666V23.1916ZM60.5 51.425V59.4916H72.6V51.425H60.5ZM80.6666 37.3084H76.6332V49.4084V61.5084V67.5584H80.6666V61.5084V49.4084V37.3084ZM110.917 57.475C110.917 54.0466 108.295 51.425 104.867 51.425H84.7V59.4916H110.917V57.475ZM110.917 75.4234V63.525H84.7V69.575C84.7 70.785 83.8934 71.5916 82.6834 71.5916H74.6168C73.4068 71.5916 72.6002 70.785 72.6002 69.575V63.525H58.4836C57.2736 63.525 56.4671 62.7184 56.4671 61.5084V49.4084V47.3918H38.3171C37.1071 47.3918 36.3005 46.5852 36.3005 45.3752V21.175C36.3005 19.965 37.1071 19.1584 38.3171 19.1584H56.4671V15.125H4.03365V57.0716L7.22431 64.6492C8.94573 63.7639 10.7553 63.0575 12.6206 62.54C14.4106 62.0323 16.24 61.7201 18.0808 61.5864C18.116 61.5838 18.1509 61.5812 18.1862 61.5788C18.3629 61.5665 18.5399 61.5554 18.717 61.5467C18.8276 61.541 18.9384 61.5367 19.0492 61.5323C19.1733 61.5275 19.2971 61.5219 19.4212 61.5188C19.6696 61.5122 19.918 61.5081 20.1668 61.5081C20.4275 61.5081 20.687 61.5124 20.946 61.5195C21.0051 61.5211 21.0637 61.5242 21.1228 61.5263C21.3293 61.5332 21.5356 61.5419 21.741 61.5533C21.7897 61.5561 21.8381 61.5597 21.8866 61.5625C22.1132 61.5762 22.3392 61.5925 22.5641 61.6119C22.5828 61.6135 22.6012 61.6152 22.6199 61.6169C34.9796 62.6938 45.1231 71.822 47.7409 83.6916H86.515C89.5842 77.7451 95.2083 73.991 101.824 73.6382C101.88 73.6351 101.935 73.6323 101.99 73.6297C102.275 73.6169 102.561 73.6082 102.85 73.6082C103.161 73.6082 103.471 73.6167 103.781 73.6313C103.785 73.6315 103.789 73.6315 103.793 73.6318C106.297 73.7518 108.766 74.3481 110.917 75.4234ZM102.85 105.875C110.715 105.875 116.967 99.6234 116.967 91.7584C116.967 84.392 111.482 78.4415 104.325 77.7165C104.311 77.7151 104.298 77.7136 104.284 77.7122C104.08 77.6921 103.875 77.6777 103.67 77.6664C103.627 77.664 103.585 77.6607 103.543 77.6588C103.313 77.6479 103.082 77.6416 102.85 77.6416C102.627 77.6416 102.407 77.6482 102.187 77.6581C102.128 77.6607 102.068 77.6645 102.009 77.668C101.835 77.678 101.662 77.6907 101.489 77.7068C101.441 77.7113 101.393 77.7153 101.345 77.7203C100.895 77.7668 100.452 77.8335 100.016 77.9204C99.9909 77.9254 99.9663 77.9306 99.9417 77.9358C99.7319 77.9788 99.5234 78.0258 99.3171 78.0781C99.3079 78.0804 99.2989 78.0825 99.2897 78.0847C98.8464 78.1976 98.4118 78.3314 97.9871 78.4845C97.9715 78.4902 97.9561 78.4959 97.9408 78.5016C97.7486 78.5717 97.5586 78.6462 97.3705 78.7242C97.3473 78.7339 97.3242 78.7431 97.301 78.7528C97.0994 78.8376 96.9002 78.9267 96.7038 79.0205C96.6918 79.0264 96.6799 79.0328 96.6679 79.0385C96.5065 79.1163 96.3474 79.198 96.1896 79.2817C96.0943 79.3323 96 79.3845 95.9062 79.4374C95.8459 79.4712 95.7862 79.5055 95.7266 79.54C93.0885 81.0775 90.9771 83.4831 89.7418 86.5152C89.7033 86.6695 89.6421 86.809 89.5636 86.9337C89.0267 88.4356 88.7336 90.0592 88.7336 91.7586C88.7334 99.6234 94.985 105.875 102.85 105.875ZM48.4 91.7584H84.7C84.7 91.5282 84.7071 91.3046 84.7168 91.0834C84.748 90.2159 84.8397 89.3653 84.9864 88.5344C85.0245 88.2699 85.0637 88.0022 85.1032 87.7252H48.4C48.4 88.3302 48.4 89.1368 48.4 89.7418C48.4 90.3468 48.4 91.1534 48.4 91.7584Z" fill="#13332A"/>
<path d="M102.85 83.6917C107.287 83.6917 110.917 87.3216 110.917 91.7582C110.917 96.1948 107.287 99.8248 102.85 99.8248C98.4134 99.8248 94.7834 96.1948 94.7834 91.7582C94.7834 87.3216 98.4134 83.6917 102.85 83.6917ZM102.85 95.7917C105.068 95.7917 106.883 93.9766 106.883 91.7582C106.883 89.5398 105.068 87.7251 102.85 87.7251C100.632 87.7251 98.8166 89.5401 98.8166 91.7585C98.8166 93.9769 100.632 95.7917 102.85 95.7917Z" fill="#13332A"/>
<path d="M30.25 47.3916H10.0834C8.87343 47.3916 8.06684 46.585 8.06684 45.375V21.175C8.06684 19.965 8.87343 19.1584 10.0834 19.1584H30.25C31.46 19.1584 32.2666 19.965 32.2666 21.175V45.375C32.2666 46.585 31.46 47.3916 30.25 47.3916ZM28.2334 23.1916H12.1V43.3582H28.2334V23.1916Z" fill="#13332A"/>
<path d="M56.4666 71.5915H46.3832C45.1732 71.5915 44.3666 70.7849 44.3666 69.5749C44.3666 68.3649 45.1732 67.5583 46.3832 67.5583H56.4666C57.6766 67.5583 58.4832 68.3649 58.4832 69.5749C58.4834 70.7849 57.6766 71.5915 56.4666 71.5915Z" fill="#13332A"/>
<path d="M62.5166 79.6584H52.4332C51.2232 79.6584 50.4166 78.8518 50.4166 77.6418C50.4166 76.4318 51.2234 75.625 52.4334 75.625H62.5168C63.7268 75.625 64.5334 76.4316 64.5334 77.6416C64.5334 78.8516 63.7266 79.6584 62.5166 79.6584Z" fill="#13332A"/>
</svg>
