<svg width="68" height="68" viewBox="0 0 68 68" fill="none" xmlns="http://www.w3.org/2000/svg">
<g clip-path="url(#clip0_114_42)">
<path d="M17.2061 36.5347C18.4065 36.3507 18.7225 35.8664 18.8301 34.6709C18.9734 33.0842 19.2214 31.5057 19.4241 29.9254C19.4858 29.581 19.5274 29.2332 19.549 28.8839C19.5549 28.269 19.1021 27.5256 18.5588 27.4507C17.3268 27.281 16.0414 27.0793 15.0849 28.1985C14.1246 29.3216 13.1857 30.4632 12.2549 31.6111C11.7806 32.1789 11.3369 32.7719 10.9261 33.3873C9.96512 34.8749 10.7752 36.5459 12.5453 36.7203C14.1013 36.7538 15.6577 36.6919 17.2061 36.5347ZM17.1582 29.246L17.4191 29.3953C17.0378 31.0334 16.6569 32.6716 16.2575 34.3838L13.4605 34.2537C14.7511 32.3988 15.7791 30.6924 17.1582 29.246Z" fill="#13332A"/>
<path d="M0.396545 42.8757C0.736542 40.2422 -0.468719 37.8353 1.44013 35.938C3.6144 34.0277 6.02007 31.4508 8.05036 29.2507C10.3332 26.7866 12.6109 24.3146 15.1706 22.0837C17.0468 20.4326 19.9386 21.973 22.2391 21.9015C24.7326 12.8294 25.7689 12.5907 34.9144 12.6593C43.4713 12.7324 50.9055 13.6313 59.155 14.3443C66.6432 15.2 67.7339 14.5493 67.4846 22.8709C67.4557 30.9202 67.4593 37.8399 67.2651 45.6562C67.2892 51.748 60.0922 50.2954 55.9167 50.8439C55.2673 56.6346 46.8009 56.6294 45.1005 51.5784C35.7688 50.8567 26.6105 51.2866 17.2938 49.7441C16.2464 55.2687 7.63438 55.2774 6.86972 49.6036C0.241806 49.1706 0.185951 49.9859 0.396545 42.8757ZM64.8853 39.9041C64.9488 33.1597 65.4664 26.0689 65.2177 19.2549C65.0936 17.6872 64.9579 17.5375 63.3808 17.2738C60.2771 16.7342 57.8889 16.6151 54.9269 16.3191C46.0107 15.6132 37.9398 14.3587 28.6266 15.2379C23.6956 15.7844 23.2275 35.8042 23.0506 39.2895C37.3486 39.2569 50.6161 40.62 64.7047 41.1892C64.844 40.7757 64.9052 40.3399 64.8853 39.9041ZM48.3308 51.9402C51.692 55.4682 56.4266 50.3526 52.8071 48.016C52.1388 47.8592 51.3692 47.804 50.6309 47.7003C48.6276 47.9962 46.4745 50.0529 48.3308 51.9402ZM23.5107 47.6559C26.7969 48.0732 40.8182 48.7033 44.9364 48.9996C46.6198 43.6547 53.8919 44.3503 55.4447 48.5642C57.88 48.3733 60.3306 48.449 62.7403 48.0542C65.4373 47.8037 64.8611 44.9093 64.7364 42.9581C50.5555 42.6887 37.2165 41.5322 22.8976 41.6601C23.102 43.1721 21.3943 47.2087 23.51 47.6559H23.5107ZM10.1212 50.1549C12.1206 52.8492 16.8106 49.8444 14.0659 46.9441C13.5046 46.3804 11.9673 46.5955 11.3518 46.8986C10.4095 47.6292 9.50611 49.1154 10.1212 50.1549ZM7.23852 47.4338C8.30258 44.5149 12.6952 43.122 15.0464 45.0259C15.3982 45.3024 16.338 45.9823 16.7769 47.1209C17.0229 47.6174 20.195 48.0798 20.1509 46.859C20.4409 38.9575 20.8059 31.4565 21.6694 23.7668C19.9982 23.8328 17.2935 23.1125 16.1132 24.5341C14.4663 26.2212 12.7018 28.0768 10.5657 30.3769C8.26893 33.1349 5.26722 35.5687 3.36565 38.5972C3.18108 40.8095 3.06138 44.4111 2.9004 46.7588L7.23852 47.4338Z" fill="#13332A"/>
</g>
<defs>
<clipPath id="clip0_114_42">
<rect width="68" height="68" fill="white" transform="matrix(-1 0 0 1 68 0)"/>
</clipPath>
</defs>
</svg>
