<svg width="20" height="20" viewBox="0 0 20 20" fill="none" xmlns="http://www.w3.org/2000/svg">
<path fill-rule="evenodd" clip-rule="evenodd" d="M18.5 0H3.04C2.71 0 2.39 0.17 2.21 0.45L0.67 2.75C0.560105 2.91245 0.500936 3.10387 0.5 3.3V16C0.5 16.55 0.95 17 1.5 17H3.5C4.05 17 4.5 17.45 4.5 18V19C4.5 19.55 4.95 20 5.5 20H6.96C7.29 20 7.61 19.83 7.79 19.55L9.2 17.44C9.39 17.16 9.7 16.99 10.03 16.99H14.08C14.35 16.99 14.6 16.88 14.79 16.7L19.2 12.29C19.2931 12.1969 19.3668 12.0861 19.4165 11.9642C19.4663 11.8423 19.4913 11.7117 19.49 11.58V1C19.5 0.45 19.05 0 18.5 0ZM8.79 10.86C8.79 11.18 8.53 11.43 8.22 11.43H7.08C6.92883 11.43 6.78385 11.3699 6.67695 11.2631C6.57005 11.1562 6.51 11.0112 6.51 10.86V5.15C6.51 4.83 6.77 4.58 7.08 4.58H8.22C8.54 4.58 8.79 4.84 8.79 5.15V10.86ZM14.5 10.86C14.5 11.18 14.24 11.43 13.93 11.43H12.79C12.7151 11.43 12.641 11.4153 12.5719 11.3866C12.5027 11.358 12.4399 11.316 12.3869 11.2631C12.334 11.2101 12.292 11.1473 12.2634 11.0781C12.2347 11.009 12.22 10.9349 12.22 10.86V5.15C12.22 4.83 12.48 4.58 12.79 4.58H13.93C14.25 4.58 14.5 4.84 14.5 5.15V10.86Z" fill="#E1A527"/>
</svg>
