<svg width="124" height="124" viewBox="0 0 124 124" fill="none" xmlns="http://www.w3.org/2000/svg">
<g clip-path="url(#clip0_115_100)">
<path d="M99.1999 93.0001C99.1999 91.8594 98.2761 90.9335 97.1333 90.9335H88.1227C87.4034 89.4041 86.7318 87.8273 86.1511 86.1969C85.7667 85.1223 84.5866 84.5602 83.5079 84.9445C82.4333 85.3289 81.8731 86.509 82.2555 87.5858C82.6607 88.7204 83.1029 89.8384 83.572 90.9338H40.4265C44.409 81.6401 45.2542 72.956 45.4279 69.422C45.4836 68.2813 44.6054 67.3119 43.4645 67.2562C42.3298 67.2065 41.3565 68.0786 41.2986 69.2196C41.1683 71.9599 40.3749 81.3737 35.8942 90.934H26.867C25.7241 90.934 24.8004 91.8599 24.8004 93.0006C24.8004 94.1413 25.7241 95.0672 26.867 95.0672H97.1333C98.2761 95.0667 99.1999 94.1411 99.1999 93.0001Z" fill="#13332A"/>
<path d="M29.539 73.7947C29.942 74.1977 30.4712 74.4002 31.0001 74.4002C31.5291 74.4002 32.0582 74.1977 32.4612 73.7947L62 44.256L90.0777 72.3336L84.7333 77.6779L62.8556 55.8003L65.5279 53.128C66.3361 52.32 66.3361 51.0137 65.5279 50.2058C64.7198 49.3978 63.4136 49.3976 62.6057 50.2058L58.4723 54.3392C57.6644 55.1473 57.6644 56.4534 58.4723 57.2614L83.2722 82.0613C83.6752 82.4643 84.2044 82.6667 84.7333 82.6667C85.2625 82.6667 85.7914 82.4643 86.1944 82.0613L94.461 73.7947C95.2692 72.9865 95.2692 71.6804 94.461 70.8725L64.9222 41.3337L92.9999 13.2561L98.3442 18.6004L76.4665 40.4781L73.7942 37.8058C72.9861 36.9976 71.68 36.9976 70.872 37.8058C70.0641 38.614 70.0638 39.9201 70.872 40.728L75.0054 44.8614C75.4084 45.2644 75.9376 45.4669 76.4665 45.4669C76.9957 45.4669 77.5246 45.2644 77.9276 44.8614L102.728 20.0615C103.535 19.2533 103.535 17.9472 102.728 17.1393L94.461 8.87275C93.6531 8.06457 92.3467 8.06457 91.5388 8.87275L62 38.4115L33.9223 10.3339L39.2667 4.98953L61.1444 26.8672L58.4721 29.5395C57.6641 30.3477 57.6641 31.6538 58.4721 32.4617C59.2802 33.2699 60.5864 33.2699 61.3943 32.4617L65.5277 28.3283C66.3359 27.5201 66.3359 26.214 65.5277 25.4061L40.7278 0.606195C39.9196 -0.201739 38.6135 -0.201739 37.8056 0.606195L29.539 8.87275C28.7311 9.68093 28.7311 10.987 29.539 11.795L59.0778 41.3337L31.0001 69.4114L25.6558 64.0671L47.5335 42.1894L50.2058 44.8617C51.0139 45.6696 52.32 45.6696 53.128 44.8617C53.9362 44.0535 53.9362 42.7474 53.128 41.9394L48.9946 37.806C48.1864 36.9979 46.8803 36.9979 46.0724 37.806L21.2725 62.6059C20.4643 63.4141 20.4643 64.7202 21.2725 65.5282L29.539 73.7947Z" fill="#13332A"/>
<path d="M121.933 119.867H82.6665V104.189L86.1942 100.661C87.0021 99.853 87.0021 98.5469 86.1942 97.7389C85.386 96.9308 84.0799 96.9308 83.272 97.7389L79.1386 101.872C78.7501 102.259 78.5331 102.786 78.5331 103.333V119.867H45.4666V103.333C45.4666 102.786 45.2496 102.259 44.8612 101.872L40.7278 97.7389C39.9196 96.9308 38.6135 96.9308 37.8055 97.7389C36.9974 98.5469 36.9974 99.8532 37.8055 100.661L41.3332 104.189V119.867H2.06681C0.923928 119.867 0.000228882 120.792 0.000228882 121.933C0.000228882 123.074 0.923928 124 2.06681 124H121.933C123.076 124 123.999 123.074 123.999 121.933C123.999 120.792 123.076 119.867 121.933 119.867Z" fill="#13332A"/>
<path d="M66.1334 82.6669C67.2763 82.6669 68.2 81.741 68.2 80.6003V72.3338C68.2 71.1931 67.2763 70.2672 66.1334 70.2672H57.8668C56.724 70.2672 55.8003 71.1931 55.8003 72.3338V80.6003C55.8003 81.741 56.724 82.6669 57.8668 82.6669H66.1334ZM59.9334 74.4001H64.0668V78.5335H59.9334V74.4001Z" fill="#13332A"/>
<path d="M59.9334 105.4V109.533C59.9334 110.674 60.8571 111.6 62 111.6C63.1429 111.6 64.0666 110.674 64.0666 109.533V105.4C64.0666 104.259 63.1429 103.333 62 103.333C60.8571 103.333 59.9334 104.259 59.9334 105.4Z" fill="#13332A"/>
</g>
<defs>
<clipPath id="clip0_115_100">
<rect width="124" height="124" fill="white"/>
</clipPath>
</defs>
</svg>
